<svg xmlns="http://www.w3.org/2000/svg" xmlns:xlink="http://www.w3.org/1999/xlink" width="500" zoomAndPan="magnify" viewBox="0 0 375 374.999991" height="500" preserveAspectRatio="xMidYMid meet" version="1.0"><defs><g/><clipPath id="05aa54ab48"><path d="M 89.832031 48.039062 L 285.144531 48.039062 L 285.144531 217.292969 L 89.832031 217.292969 Z M 89.832031 48.039062 " clip-rule="nonzero"/></clipPath><clipPath id="f7eb355a55"><path d="M 134.882812 195.292969 L 145 195.292969 L 145 205 L 134.882812 205 Z M 134.882812 195.292969 " clip-rule="nonzero"/></clipPath><clipPath id="fa9a681930"><path d="M 147 195.292969 L 157 195.292969 L 157 205 L 147 205 Z M 147 195.292969 " clip-rule="nonzero"/></clipPath><clipPath id="d668c6e9a2"><path d="M 134.882812 207 L 145 207 L 145 217.789062 L 134.882812 217.789062 Z M 134.882812 207 " clip-rule="nonzero"/></clipPath><clipPath id="71a47b8a8b"><path d="M 147 207 L 157 207 L 157 217.789062 L 147 217.789062 Z M 147 207 " clip-rule="nonzero"/></clipPath><clipPath id="3053f50f10"><path d="M 235.707031 165.613281 L 246 165.613281 L 246 176 L 235.707031 176 Z M 235.707031 165.613281 " clip-rule="nonzero"/></clipPath><clipPath id="97d00013ff"><path d="M 247 165.613281 L 258 165.613281 L 258 176 L 247 176 Z M 247 165.613281 " clip-rule="nonzero"/></clipPath><clipPath id="6766049a55"><path d="M 235.707031 177 L 246 177 L 246 188 L 235.707031 188 Z M 235.707031 177 " clip-rule="nonzero"/></clipPath></defs><g clip-path="url(#05aa54ab48)"><path fill="#00992f" d="M 218.25 64.390625 L 237.566406 80.394531 L 179.515625 164.058594 L 152.464844 127.125 L 89.832031 217.292969 L 150.347656 152.980469 L 180.085938 202.535156 L 262.605469 101.152344 L 282.753906 117.867188 L 285.144531 48.023438 L 218.25 64.390625 " fill-opacity="1" fill-rule="nonzero"/></g><g clip-path="url(#f7eb355a55)"><path fill="#ff3131" d="M 144.074219 195.292969 L 135.320312 195.292969 C 135.082031 195.292969 134.882812 195.488281 134.882812 195.730469 L 134.882812 204.480469 C 134.882812 204.722656 135.082031 204.917969 135.320312 204.917969 L 144.074219 204.917969 C 144.3125 204.917969 144.511719 204.722656 144.511719 204.480469 L 144.511719 195.730469 C 144.511719 195.488281 144.3125 195.292969 144.074219 195.292969 Z M 144.074219 195.292969 " fill-opacity="1" fill-rule="nonzero"/></g><g clip-path="url(#fa9a681930)"><path fill="#ff3131" d="M 156.324219 195.292969 L 147.574219 195.292969 C 147.332031 195.292969 147.136719 195.488281 147.136719 195.730469 L 147.136719 204.480469 C 147.136719 204.722656 147.332031 204.917969 147.574219 204.917969 L 156.324219 204.917969 C 156.566406 204.917969 156.761719 204.722656 156.761719 204.480469 L 156.761719 195.730469 C 156.761719 195.488281 156.566406 195.292969 156.324219 195.292969 Z M 156.324219 195.292969 " fill-opacity="1" fill-rule="nonzero"/></g><g clip-path="url(#d668c6e9a2)"><path fill="#ff3131" d="M 144.074219 207.542969 L 135.320312 207.542969 C 135.082031 207.542969 134.882812 207.738281 134.882812 207.980469 L 134.882812 216.730469 C 134.882812 216.972656 135.082031 217.167969 135.320312 217.167969 L 144.074219 217.167969 C 144.3125 217.167969 144.511719 216.972656 144.511719 216.730469 L 144.511719 207.980469 C 144.511719 207.738281 144.3125 207.542969 144.074219 207.542969 Z M 144.074219 207.542969 " fill-opacity="1" fill-rule="nonzero"/></g><g clip-path="url(#71a47b8a8b)"><path fill="#ff3131" d="M 156.324219 207.542969 L 147.574219 207.542969 C 147.332031 207.542969 147.136719 207.738281 147.136719 207.980469 L 147.136719 216.730469 C 147.136719 216.972656 147.332031 217.167969 147.574219 217.167969 L 156.324219 217.167969 C 156.566406 217.167969 156.761719 216.972656 156.761719 216.730469 L 156.761719 207.980469 C 156.761719 207.738281 156.566406 207.542969 156.324219 207.542969 Z M 156.324219 207.542969 " fill-opacity="1" fill-rule="nonzero"/></g><g fill="#0e1c30" fill-opacity="1"><g transform="translate(2.828237, 288.079285)"><g><path d="M 39.28125 -48.625 L 39.28125 -39.140625 L 26.390625 -39.140625 L 26.390625 0 L 14.546875 0 L 14.546875 -39.140625 L 1.65625 -39.140625 L 1.65625 -48.625 Z M 39.28125 -48.625 "/></g></g></g><g fill="#0e1c30" fill-opacity="1"><g transform="translate(48.257903, 288.079285)"><g><path d="M 34.5625 -8.59375 L 16.421875 -8.59375 L 13.5 0 L 1.109375 0 L 18.703125 -48.625 L 32.421875 -48.625 L 50.015625 0 L 37.46875 0 Z M 31.515625 -17.734375 L 25.484375 -35.53125 L 19.53125 -17.734375 Z M 31.515625 -17.734375 "/></g></g></g><g fill="#0e1c30" fill-opacity="1"><g transform="translate(103.798059, 288.079285)"><g><path d="M 21.890625 0.484375 C 18.328125 0.484375 15.140625 -0.09375 12.328125 -1.25 C 9.515625 -2.40625 7.265625 -4.113281 5.578125 -6.375 C 3.890625 -8.632812 3 -11.359375 2.90625 -14.546875 L 15.515625 -14.546875 C 15.703125 -12.742188 16.328125 -11.367188 17.390625 -10.421875 C 18.453125 -9.472656 19.835938 -9 21.546875 -9 C 23.296875 -9 24.675781 -9.398438 25.6875 -10.203125 C 26.707031 -11.015625 27.21875 -12.140625 27.21875 -13.578125 C 27.21875 -14.773438 26.8125 -15.765625 26 -16.546875 C 25.195312 -17.335938 24.207031 -17.984375 23.03125 -18.484375 C 21.851562 -18.992188 20.179688 -19.570312 18.015625 -20.21875 C 14.867188 -21.195312 12.300781 -22.171875 10.3125 -23.140625 C 8.332031 -24.109375 6.625 -25.535156 5.1875 -27.421875 C 3.757812 -29.316406 3.046875 -31.789062 3.046875 -34.84375 C 3.046875 -39.363281 4.6875 -42.90625 7.96875 -45.46875 C 11.25 -48.03125 15.519531 -49.3125 20.78125 -49.3125 C 26.132812 -49.3125 30.453125 -48.03125 33.734375 -45.46875 C 37.015625 -42.90625 38.769531 -39.335938 39 -34.765625 L 26.1875 -34.765625 C 26.09375 -36.335938 25.515625 -37.570312 24.453125 -38.46875 C 23.390625 -39.375 22.023438 -39.828125 20.359375 -39.828125 C 18.929688 -39.828125 17.773438 -39.445312 16.890625 -38.6875 C 16.015625 -37.925781 15.578125 -36.828125 15.578125 -35.390625 C 15.578125 -33.828125 16.316406 -32.601562 17.796875 -31.71875 C 19.273438 -30.84375 21.585938 -29.898438 24.734375 -28.890625 C 27.867188 -27.828125 30.414062 -26.804688 32.375 -25.828125 C 34.34375 -24.859375 36.039062 -23.453125 37.46875 -21.609375 C 38.90625 -19.765625 39.625 -17.382812 39.625 -14.46875 C 39.625 -11.707031 38.914062 -9.191406 37.5 -6.921875 C 36.09375 -4.660156 34.050781 -2.859375 31.375 -1.515625 C 28.695312 -0.179688 25.535156 0.484375 21.890625 0.484375 Z M 21.890625 0.484375 "/></g></g></g><g fill="#0e1c30" fill-opacity="1"><g transform="translate(150.889734, 288.079285)"><g><path d="M 32.484375 0 L 16.140625 -21.46875 L 16.140625 0 L 4.296875 0 L 4.296875 -48.625 L 16.140625 -48.625 L 16.140625 -27.296875 L 32.34375 -48.625 L 46.265625 -48.625 L 27.421875 -24.796875 L 46.96875 0 Z M 32.484375 0 "/></g></g></g><g fill="#0e1c30" fill-opacity="1"><g transform="translate(203.659882, 288.079285)"><g><path d="M 21.890625 0.484375 C 18.328125 0.484375 15.140625 -0.09375 12.328125 -1.25 C 9.515625 -2.40625 7.265625 -4.113281 5.578125 -6.375 C 3.890625 -8.632812 3 -11.359375 2.90625 -14.546875 L 15.515625 -14.546875 C 15.703125 -12.742188 16.328125 -11.367188 17.390625 -10.421875 C 18.453125 -9.472656 19.835938 -9 21.546875 -9 C 23.296875 -9 24.675781 -9.398438 25.6875 -10.203125 C 26.707031 -11.015625 27.21875 -12.140625 27.21875 -13.578125 C 27.21875 -14.773438 26.8125 -15.765625 26 -16.546875 C 25.195312 -17.335938 24.207031 -17.984375 23.03125 -18.484375 C 21.851562 -18.992188 20.179688 -19.570312 18.015625 -20.21875 C 14.867188 -21.195312 12.300781 -22.171875 10.3125 -23.140625 C 8.332031 -24.109375 6.625 -25.535156 5.1875 -27.421875 C 3.757812 -29.316406 3.046875 -31.789062 3.046875 -34.84375 C 3.046875 -39.363281 4.6875 -42.90625 7.96875 -45.46875 C 11.25 -48.03125 15.519531 -49.3125 20.78125 -49.3125 C 26.132812 -49.3125 30.453125 -48.03125 33.734375 -45.46875 C 37.015625 -42.90625 38.769531 -39.335938 39 -34.765625 L 26.1875 -34.765625 C 26.09375 -36.335938 25.515625 -37.570312 24.453125 -38.46875 C 23.390625 -39.375 22.023438 -39.828125 20.359375 -39.828125 C 18.929688 -39.828125 17.773438 -39.445312 16.890625 -38.6875 C 16.015625 -37.925781 15.578125 -36.828125 15.578125 -35.390625 C 15.578125 -33.828125 16.316406 -32.601562 17.796875 -31.71875 C 19.273438 -30.84375 21.585938 -29.898438 24.734375 -28.890625 C 27.867188 -27.828125 30.414062 -26.804688 32.375 -25.828125 C 34.34375 -24.859375 36.039062 -23.453125 37.46875 -21.609375 C 38.90625 -19.765625 39.625 -17.382812 39.625 -14.46875 C 39.625 -11.707031 38.914062 -9.191406 37.5 -6.921875 C 36.09375 -4.660156 34.050781 -2.859375 31.375 -1.515625 C 28.695312 -0.179688 25.535156 0.484375 21.890625 0.484375 Z M 21.890625 0.484375 "/></g></g></g><g fill="#0e1c30" fill-opacity="1"><g transform="translate(250.751549, 288.079285)"><g><path d="M 39.28125 -48.625 L 39.28125 -39.140625 L 26.390625 -39.140625 L 26.390625 0 L 14.546875 0 L 14.546875 -39.140625 L 1.65625 -39.140625 L 1.65625 -48.625 Z M 39.28125 -48.625 "/></g></g></g><g fill="#0e1c30" fill-opacity="1"><g transform="translate(296.18121, 288.079285)"><g><path d="M 16.140625 -48.625 L 16.140625 0 L 4.296875 0 L 4.296875 -48.625 Z M 16.140625 -48.625 "/></g></g></g><g fill="#0e1c30" fill-opacity="1"><g transform="translate(321.112932, 288.079285)"><g><path d="M 34.5625 -8.59375 L 16.421875 -8.59375 L 13.5 0 L 1.109375 0 L 18.703125 -48.625 L 32.421875 -48.625 L 50.015625 0 L 37.46875 0 Z M 31.515625 -17.734375 L 25.484375 -35.53125 L 19.53125 -17.734375 Z M 31.515625 -17.734375 "/></g></g></g><g fill="#64677b" fill-opacity="1"><g transform="translate(53.802617, 321.226035)"><g><path d="M 12.515625 -15.484375 L 12.515625 -12.46875 L 8.40625 -12.46875 L 8.40625 0 L 4.640625 0 L 4.640625 -12.46875 L 0.53125 -12.46875 L 0.53125 -15.484375 Z M 12.515625 -15.484375 "/></g></g></g><g fill="#64677b" fill-opacity="1"><g transform="translate(69.631841, 321.226035)"><g><path d="M 8.6875 0.15625 C 7.238281 0.15625 5.90625 -0.179688 4.6875 -0.859375 C 3.476562 -1.535156 2.515625 -2.476562 1.796875 -3.6875 C 1.085938 -4.90625 0.734375 -6.269531 0.734375 -7.78125 C 0.734375 -9.300781 1.085938 -10.660156 1.796875 -11.859375 C 2.515625 -13.066406 3.476562 -14.007812 4.6875 -14.6875 C 5.90625 -15.363281 7.238281 -15.703125 8.6875 -15.703125 C 10.144531 -15.703125 11.476562 -15.363281 12.6875 -14.6875 C 13.90625 -14.007812 14.863281 -13.066406 15.5625 -11.859375 C 16.257812 -10.660156 16.609375 -9.300781 16.609375 -7.78125 C 16.609375 -6.269531 16.253906 -4.90625 15.546875 -3.6875 C 14.847656 -2.476562 13.894531 -1.535156 12.6875 -0.859375 C 11.476562 -0.179688 10.144531 0.15625 8.6875 0.15625 Z M 8.6875 -3.28125 C 9.925781 -3.28125 10.914062 -3.691406 11.65625 -4.515625 C 12.40625 -5.347656 12.78125 -6.4375 12.78125 -7.78125 C 12.78125 -9.15625 12.40625 -10.25 11.65625 -11.0625 C 10.914062 -11.875 9.925781 -12.28125 8.6875 -12.28125 C 7.4375 -12.28125 6.441406 -11.875 5.703125 -11.0625 C 4.960938 -10.257812 4.59375 -9.164062 4.59375 -7.78125 C 4.59375 -6.414062 4.960938 -5.320312 5.703125 -4.5 C 6.441406 -3.6875 7.4375 -3.28125 8.6875 -3.28125 Z M 8.6875 -3.28125 "/></g></g></g><g fill="#64677b" fill-opacity="1"><g transform="translate(89.759294, 321.226035)"><g><path d="M 7.171875 -15.484375 C 8.804688 -15.484375 10.234375 -15.160156 11.453125 -14.515625 C 12.671875 -13.867188 13.613281 -12.957031 14.28125 -11.78125 C 14.957031 -10.613281 15.296875 -9.269531 15.296875 -7.75 C 15.296875 -6.226562 14.957031 -4.878906 14.28125 -3.703125 C 13.613281 -2.523438 12.664062 -1.613281 11.4375 -0.96875 C 10.207031 -0.320312 8.785156 0 7.171875 0 L 1.375 0 L 1.375 -15.484375 Z M 6.921875 -3.265625 C 8.347656 -3.265625 9.457031 -3.65625 10.25 -4.4375 C 11.050781 -5.21875 11.453125 -6.320312 11.453125 -7.75 C 11.453125 -9.175781 11.050781 -10.285156 10.25 -11.078125 C 9.457031 -11.867188 8.347656 -12.265625 6.921875 -12.265625 L 5.140625 -12.265625 L 5.140625 -3.265625 Z M 6.921875 -3.265625 "/></g></g></g><g fill="#64677b" fill-opacity="1"><g transform="translate(108.586256, 321.226035)"><g><path d="M 8.6875 0.15625 C 7.238281 0.15625 5.90625 -0.179688 4.6875 -0.859375 C 3.476562 -1.535156 2.515625 -2.476562 1.796875 -3.6875 C 1.085938 -4.90625 0.734375 -6.269531 0.734375 -7.78125 C 0.734375 -9.300781 1.085938 -10.660156 1.796875 -11.859375 C 2.515625 -13.066406 3.476562 -14.007812 4.6875 -14.6875 C 5.90625 -15.363281 7.238281 -15.703125 8.6875 -15.703125 C 10.144531 -15.703125 11.476562 -15.363281 12.6875 -14.6875 C 13.90625 -14.007812 14.863281 -13.066406 15.5625 -11.859375 C 16.257812 -10.660156 16.609375 -9.300781 16.609375 -7.78125 C 16.609375 -6.269531 16.253906 -4.90625 15.546875 -3.6875 C 14.847656 -2.476562 13.894531 -1.535156 12.6875 -0.859375 C 11.476562 -0.179688 10.144531 0.15625 8.6875 0.15625 Z M 8.6875 -3.28125 C 9.925781 -3.28125 10.914062 -3.691406 11.65625 -4.515625 C 12.40625 -5.347656 12.78125 -6.4375 12.78125 -7.78125 C 12.78125 -9.15625 12.40625 -10.25 11.65625 -11.0625 C 10.914062 -11.875 9.925781 -12.28125 8.6875 -12.28125 C 7.4375 -12.28125 6.441406 -11.875 5.703125 -11.0625 C 4.960938 -10.257812 4.59375 -9.164062 4.59375 -7.78125 C 4.59375 -6.414062 4.960938 -5.320312 5.703125 -4.5 C 6.441406 -3.6875 7.4375 -3.28125 8.6875 -3.28125 Z M 8.6875 -3.28125 "/></g></g></g><g fill="#64677b" fill-opacity="1"><g transform="translate(128.713709, 321.226035)"><g/></g></g><g fill="#64677b" fill-opacity="1"><g transform="translate(136.188913, 321.226035)"><g><path d="M 18.90625 -15.484375 L 18.90625 0 L 15.140625 0 L 15.140625 -9.28125 L 11.671875 0 L 8.625 0 L 5.140625 -9.3125 L 5.140625 0 L 1.375 0 L 1.375 -15.484375 L 5.828125 -15.484375 L 10.171875 -4.765625 L 14.46875 -15.484375 Z M 18.90625 -15.484375 "/></g></g></g><g fill="#64677b" fill-opacity="1"><g transform="translate(159.225961, 321.226035)"><g><path d="M 11.015625 -2.734375 L 5.234375 -2.734375 L 4.296875 0 L 0.359375 0 L 5.953125 -15.484375 L 10.328125 -15.484375 L 15.921875 0 L 11.9375 0 Z M 10.03125 -5.640625 L 8.125 -11.3125 L 6.21875 -5.640625 Z M 10.03125 -5.640625 "/></g></g></g><g fill="#64677b" fill-opacity="1"><g transform="translate(178.273354, 321.226035)"><g><path d="M 15.21875 0 L 11.453125 0 L 5.140625 -9.546875 L 5.140625 0 L 1.375 0 L 1.375 -15.484375 L 5.140625 -15.484375 L 11.453125 -5.890625 L 11.453125 -15.484375 L 15.21875 -15.484375 Z M 15.21875 0 "/></g></g></g><g fill="#64677b" fill-opacity="1"><g transform="translate(197.651379, 321.226035)"><g><path d="M 11.015625 -2.734375 L 5.234375 -2.734375 L 4.296875 0 L 0.359375 0 L 5.953125 -15.484375 L 10.328125 -15.484375 L 15.921875 0 L 11.9375 0 Z M 10.03125 -5.640625 L 8.125 -11.3125 L 6.21875 -5.640625 Z M 10.03125 -5.640625 "/></g></g></g><g fill="#64677b" fill-opacity="1"><g transform="translate(216.698762, 321.226035)"><g><path d="M 11.65625 -10.59375 C 11.375 -11.101562 10.96875 -11.492188 10.4375 -11.765625 C 9.914062 -12.035156 9.304688 -12.171875 8.609375 -12.171875 C 7.378906 -12.171875 6.394531 -11.769531 5.65625 -10.96875 C 4.925781 -10.175781 4.5625 -9.109375 4.5625 -7.765625 C 4.5625 -6.335938 4.945312 -5.222656 5.71875 -4.421875 C 6.5 -3.617188 7.5625 -3.21875 8.90625 -3.21875 C 9.832031 -3.21875 10.613281 -3.453125 11.25 -3.921875 C 11.894531 -4.398438 12.363281 -5.078125 12.65625 -5.953125 L 7.875 -5.953125 L 7.875 -8.734375 L 16.078125 -8.734375 L 16.078125 -5.234375 C 15.804688 -4.285156 15.332031 -3.40625 14.65625 -2.59375 C 13.988281 -1.789062 13.140625 -1.140625 12.109375 -0.640625 C 11.078125 -0.140625 9.914062 0.109375 8.625 0.109375 C 7.09375 0.109375 5.726562 -0.222656 4.53125 -0.890625 C 3.332031 -1.554688 2.398438 -2.484375 1.734375 -3.671875 C 1.066406 -4.867188 0.734375 -6.234375 0.734375 -7.765625 C 0.734375 -9.296875 1.066406 -10.660156 1.734375 -11.859375 C 2.398438 -13.054688 3.328125 -13.988281 4.515625 -14.65625 C 5.710938 -15.332031 7.078125 -15.671875 8.609375 -15.671875 C 10.460938 -15.671875 12.023438 -15.21875 13.296875 -14.3125 C 14.566406 -13.414062 15.40625 -12.175781 15.8125 -10.59375 Z M 11.65625 -10.59375 "/></g></g></g><g fill="#64677b" fill-opacity="1"><g transform="translate(236.297213, 321.226035)"><g><path d="M 5.140625 -12.46875 L 5.140625 -9.328125 L 10.1875 -9.328125 L 10.1875 -6.421875 L 5.140625 -6.421875 L 5.140625 -3.015625 L 10.859375 -3.015625 L 10.859375 0 L 1.375 0 L 1.375 -15.484375 L 10.859375 -15.484375 L 10.859375 -12.46875 Z M 5.140625 -12.46875 "/></g></g></g><g fill="#64677b" fill-opacity="1"><g transform="translate(251.024317, 321.226035)"><g><path d="M 18.90625 -15.484375 L 18.90625 0 L 15.140625 0 L 15.140625 -9.28125 L 11.671875 0 L 8.625 0 L 5.140625 -9.3125 L 5.140625 0 L 1.375 0 L 1.375 -15.484375 L 5.828125 -15.484375 L 10.171875 -4.765625 L 14.46875 -15.484375 Z M 18.90625 -15.484375 "/></g></g></g><g fill="#64677b" fill-opacity="1"><g transform="translate(274.06136, 321.226035)"><g><path d="M 5.140625 -12.46875 L 5.140625 -9.328125 L 10.1875 -9.328125 L 10.1875 -6.421875 L 5.140625 -6.421875 L 5.140625 -3.015625 L 10.859375 -3.015625 L 10.859375 0 L 1.375 0 L 1.375 -15.484375 L 10.859375 -15.484375 L 10.859375 -12.46875 Z M 5.140625 -12.46875 "/></g></g></g><g fill="#64677b" fill-opacity="1"><g transform="translate(288.788463, 321.226035)"><g><path d="M 15.21875 0 L 11.453125 0 L 5.140625 -9.546875 L 5.140625 0 L 1.375 0 L 1.375 -15.484375 L 5.140625 -15.484375 L 11.453125 -5.890625 L 11.453125 -15.484375 L 15.21875 -15.484375 Z M 15.21875 0 "/></g></g></g><g fill="#64677b" fill-opacity="1"><g transform="translate(308.166487, 321.226035)"><g><path d="M 12.515625 -15.484375 L 12.515625 -12.46875 L 8.40625 -12.46875 L 8.40625 0 L 4.640625 0 L 4.640625 -12.46875 L 0.53125 -12.46875 L 0.53125 -15.484375 Z M 12.515625 -15.484375 "/></g></g></g><g clip-path="url(#3053f50f10)"><path fill="#ecb228" d="M 244.894531 165.613281 L 236.144531 165.613281 C 235.902344 165.613281 235.707031 165.808594 235.707031 166.050781 L 235.707031 174.800781 C 235.707031 175.042969 235.902344 175.238281 236.144531 175.238281 L 244.894531 175.238281 C 245.136719 175.238281 245.332031 175.042969 245.332031 174.800781 L 245.332031 166.050781 C 245.332031 165.808594 245.136719 165.613281 244.894531 165.613281 Z M 244.894531 165.613281 " fill-opacity="1" fill-rule="nonzero"/></g><g clip-path="url(#97d00013ff)"><path fill="#ecb228" d="M 257.144531 165.613281 L 248.394531 165.613281 C 248.152344 165.613281 247.957031 165.808594 247.957031 166.050781 L 247.957031 174.800781 C 247.957031 175.042969 248.152344 175.238281 248.394531 175.238281 L 257.144531 175.238281 C 257.386719 175.238281 257.582031 175.042969 257.582031 174.800781 L 257.582031 166.050781 C 257.582031 165.808594 257.386719 165.613281 257.144531 165.613281 Z M 257.144531 165.613281 " fill-opacity="1" fill-rule="nonzero"/></g><g clip-path="url(#6766049a55)"><path fill="#ecb228" d="M 244.894531 177.863281 L 236.144531 177.863281 C 235.902344 177.863281 235.707031 178.0625 235.707031 178.300781 L 235.707031 187.054688 C 235.707031 187.296875 235.902344 187.492188 236.144531 187.492188 L 244.894531 187.492188 C 245.136719 187.492188 245.332031 187.296875 245.332031 187.054688 L 245.332031 178.300781 C 245.332031 178.0625 245.136719 177.863281 244.894531 177.863281 Z M 244.894531 177.863281 " fill-opacity="1" fill-rule="nonzero"/></g><path fill="#ecb228" d="M 257.144531 177.863281 L 248.394531 177.863281 C 248.152344 177.863281 247.957031 178.0625 247.957031 178.300781 L 247.957031 187.054688 C 247.957031 187.296875 248.152344 187.492188 248.394531 187.492188 L 257.144531 187.492188 C 257.386719 187.492188 257.582031 187.296875 257.582031 187.054688 L 257.582031 178.300781 C 257.582031 178.0625 257.386719 177.863281 257.144531 177.863281 Z M 257.144531 177.863281 " fill-opacity="1" fill-rule="nonzero"/></svg>