<svg xmlns="http://www.w3.org/2000/svg" xmlns:xlink="http://www.w3.org/1999/xlink" width="500" zoomAndPan="magnify" viewBox="0 0 375 374.999991" height="500" preserveAspectRatio="xMidYMid meet" version="1.0"><defs><g/><clipPath id="5a494c9a16"><path d="M 117.664062 87.78125 L 257.320312 87.78125 L 257.320312 208.800781 L 117.664062 208.800781 Z M 117.664062 87.78125 " clip-rule="nonzero"/></clipPath><clipPath id="675c4623a1"><path d="M 149.878906 193.070312 L 157 193.070312 L 157 200 L 149.878906 200 Z M 149.878906 193.070312 " clip-rule="nonzero"/></clipPath><clipPath id="012fe7ac9b"><path d="M 158 193.070312 L 165.964844 193.070312 L 165.964844 200 L 158 200 Z M 158 193.070312 " clip-rule="nonzero"/></clipPath><clipPath id="b262711a7b"><path d="M 149.878906 201 L 157 201 L 157 209 L 149.878906 209 Z M 149.878906 201 " clip-rule="nonzero"/></clipPath><clipPath id="cbe28618cf"><path d="M 158 201 L 165.964844 201 L 165.964844 209 L 158 209 Z M 158 201 " clip-rule="nonzero"/></clipPath><clipPath id="9517312694"><path d="M 221.96875 171.851562 L 229 171.851562 L 229 179 L 221.96875 179 Z M 221.96875 171.851562 " clip-rule="nonzero"/></clipPath><clipPath id="b741203971"><path d="M 230 171.851562 L 238 171.851562 L 238 179 L 230 179 Z M 230 171.851562 " clip-rule="nonzero"/></clipPath><clipPath id="d7176a41b4"><path d="M 221.96875 180 L 229 180 L 229 187.9375 L 221.96875 187.9375 Z M 221.96875 180 " clip-rule="nonzero"/></clipPath><clipPath id="ab2cc5fc3c"><path d="M 230 180 L 238 180 L 238 187.9375 L 230 187.9375 Z M 230 180 " clip-rule="nonzero"/></clipPath></defs><g clip-path="url(#5a494c9a16)"><path fill="#00992f" d="M 209.488281 99.472656 L 223.300781 110.914062 L 181.789062 170.738281 L 162.449219 144.328125 L 117.664062 208.800781 L 160.933594 162.816406 L 182.199219 198.25 L 241.203125 125.757812 L 255.609375 137.707031 L 257.320312 87.765625 L 209.488281 99.472656 " fill-opacity="1" fill-rule="nonzero"/></g><g clip-path="url(#675c4623a1)"><path fill="#ff3131" d="M 156.449219 193.070312 L 150.191406 193.070312 C 150.015625 193.070312 149.878906 193.210938 149.878906 193.382812 L 149.878906 199.640625 C 149.878906 199.8125 150.015625 199.953125 150.191406 199.953125 L 156.449219 199.953125 C 156.621094 199.953125 156.761719 199.8125 156.761719 199.640625 L 156.761719 193.382812 C 156.761719 193.210938 156.621094 193.070312 156.449219 193.070312 Z M 156.449219 193.070312 " fill-opacity="1" fill-rule="nonzero"/></g><g clip-path="url(#012fe7ac9b)"><path fill="#ff3131" d="M 165.207031 193.070312 L 158.949219 193.070312 C 158.777344 193.070312 158.636719 193.210938 158.636719 193.382812 L 158.636719 199.640625 C 158.636719 199.8125 158.777344 199.953125 158.949219 199.953125 L 165.207031 199.953125 C 165.378906 199.953125 165.519531 199.8125 165.519531 199.640625 L 165.519531 193.382812 C 165.519531 193.210938 165.378906 193.070312 165.207031 193.070312 Z M 165.207031 193.070312 " fill-opacity="1" fill-rule="nonzero"/></g><g clip-path="url(#b262711a7b)"><path fill="#ff3131" d="M 156.449219 201.832031 L 150.191406 201.832031 C 150.015625 201.832031 149.878906 201.972656 149.878906 202.144531 L 149.878906 208.402344 C 149.878906 208.574219 150.015625 208.714844 150.191406 208.714844 L 156.449219 208.714844 C 156.621094 208.714844 156.761719 208.574219 156.761719 208.402344 L 156.761719 202.144531 C 156.761719 201.972656 156.621094 201.832031 156.449219 201.832031 Z M 156.449219 201.832031 " fill-opacity="1" fill-rule="nonzero"/></g><g clip-path="url(#cbe28618cf)"><path fill="#ff3131" d="M 165.207031 201.832031 L 158.949219 201.832031 C 158.777344 201.832031 158.636719 201.972656 158.636719 202.144531 L 158.636719 208.402344 C 158.636719 208.574219 158.777344 208.714844 158.949219 208.714844 L 165.207031 208.714844 C 165.378906 208.714844 165.519531 208.574219 165.519531 208.402344 L 165.519531 202.144531 C 165.519531 201.972656 165.378906 201.832031 165.207031 201.832031 Z M 165.207031 201.832031 " fill-opacity="1" fill-rule="nonzero"/></g><g fill="#0e1c30" fill-opacity="1"><g transform="translate(55.451227, 259.418769)"><g><path d="M 28.078125 -34.765625 L 28.078125 -27.984375 L 18.875 -27.984375 L 18.875 0 L 10.40625 0 L 10.40625 -27.984375 L 1.1875 -27.984375 L 1.1875 -34.765625 Z M 28.078125 -34.765625 "/></g></g></g><g fill="#0e1c30" fill-opacity="1"><g transform="translate(87.935521, 259.418769)"><g><path d="M 24.71875 -6.140625 L 11.734375 -6.140625 L 9.65625 0 L 0.796875 0 L 13.375 -34.765625 L 23.1875 -34.765625 L 35.765625 0 L 26.796875 0 Z M 22.53125 -12.6875 L 18.234375 -25.40625 L 13.96875 -12.6875 Z M 22.53125 -12.6875 "/></g></g></g><g fill="#0e1c30" fill-opacity="1"><g transform="translate(127.649279, 259.418769)"><g><path d="M 15.65625 0.34375 C 13.113281 0.34375 10.832031 -0.0664062 8.8125 -0.890625 C 6.800781 -1.710938 5.191406 -2.929688 3.984375 -4.546875 C 2.773438 -6.171875 2.140625 -8.125 2.078125 -10.40625 L 11.09375 -10.40625 C 11.226562 -9.113281 11.675781 -8.128906 12.4375 -7.453125 C 13.195312 -6.773438 14.1875 -6.4375 15.40625 -6.4375 C 16.65625 -6.4375 17.644531 -6.722656 18.375 -7.296875 C 19.101562 -7.878906 19.46875 -8.679688 19.46875 -9.703125 C 19.46875 -10.566406 19.175781 -11.28125 18.59375 -11.84375 C 18.019531 -12.40625 17.3125 -12.863281 16.46875 -13.21875 C 15.625 -13.582031 14.425781 -14 12.875 -14.46875 C 10.632812 -15.15625 8.800781 -15.84375 7.375 -16.53125 C 5.957031 -17.226562 4.734375 -18.253906 3.703125 -19.609375 C 2.679688 -20.960938 2.171875 -22.734375 2.171875 -24.921875 C 2.171875 -28.148438 3.34375 -30.679688 5.6875 -32.515625 C 8.039062 -34.347656 11.097656 -35.265625 14.859375 -35.265625 C 18.691406 -35.265625 21.78125 -34.347656 24.125 -32.515625 C 26.46875 -30.679688 27.722656 -28.128906 27.890625 -24.859375 L 18.71875 -24.859375 C 18.65625 -25.984375 18.242188 -26.867188 17.484375 -27.515625 C 16.722656 -28.160156 15.75 -28.484375 14.5625 -28.484375 C 13.539062 -28.484375 12.710938 -28.207031 12.078125 -27.65625 C 11.453125 -27.113281 11.140625 -26.332031 11.140625 -25.3125 C 11.140625 -24.1875 11.664062 -23.3125 12.71875 -22.6875 C 13.78125 -22.0625 15.4375 -21.382812 17.6875 -20.65625 C 19.925781 -19.894531 21.75 -19.164062 23.15625 -18.46875 C 24.5625 -17.78125 25.773438 -16.773438 26.796875 -15.453125 C 27.816406 -14.128906 28.328125 -12.429688 28.328125 -10.359375 C 28.328125 -8.367188 27.820312 -6.566406 26.8125 -4.953125 C 25.8125 -3.335938 24.351562 -2.050781 22.4375 -1.09375 C 20.519531 -0.132812 18.257812 0.34375 15.65625 0.34375 Z M 15.65625 0.34375 "/></g></g></g><g fill="#0e1c30" fill-opacity="1"><g transform="translate(161.321986, 259.418769)"><g><path d="M 23.234375 0 L 11.546875 -15.359375 L 11.546875 0 L 3.078125 0 L 3.078125 -34.765625 L 11.546875 -34.765625 L 11.546875 -19.515625 L 23.125 -34.765625 L 33.09375 -34.765625 L 19.609375 -17.734375 L 33.578125 0 Z M 23.234375 0 "/></g></g></g><g fill="#0e1c30" fill-opacity="1"><g transform="translate(199.055062, 259.418769)"><g><path d="M 15.65625 0.34375 C 13.113281 0.34375 10.832031 -0.0664062 8.8125 -0.890625 C 6.800781 -1.710938 5.191406 -2.929688 3.984375 -4.546875 C 2.773438 -6.171875 2.140625 -8.125 2.078125 -10.40625 L 11.09375 -10.40625 C 11.226562 -9.113281 11.675781 -8.128906 12.4375 -7.453125 C 13.195312 -6.773438 14.1875 -6.4375 15.40625 -6.4375 C 16.65625 -6.4375 17.644531 -6.722656 18.375 -7.296875 C 19.101562 -7.878906 19.46875 -8.679688 19.46875 -9.703125 C 19.46875 -10.566406 19.175781 -11.28125 18.59375 -11.84375 C 18.019531 -12.40625 17.3125 -12.863281 16.46875 -13.21875 C 15.625 -13.582031 14.425781 -14 12.875 -14.46875 C 10.632812 -15.15625 8.800781 -15.84375 7.375 -16.53125 C 5.957031 -17.226562 4.734375 -18.253906 3.703125 -19.609375 C 2.679688 -20.960938 2.171875 -22.734375 2.171875 -24.921875 C 2.171875 -28.148438 3.34375 -30.679688 5.6875 -32.515625 C 8.039062 -34.347656 11.097656 -35.265625 14.859375 -35.265625 C 18.691406 -35.265625 21.78125 -34.347656 24.125 -32.515625 C 26.46875 -30.679688 27.722656 -28.128906 27.890625 -24.859375 L 18.71875 -24.859375 C 18.65625 -25.984375 18.242188 -26.867188 17.484375 -27.515625 C 16.722656 -28.160156 15.75 -28.484375 14.5625 -28.484375 C 13.539062 -28.484375 12.710938 -28.207031 12.078125 -27.65625 C 11.453125 -27.113281 11.140625 -26.332031 11.140625 -25.3125 C 11.140625 -24.1875 11.664062 -23.3125 12.71875 -22.6875 C 13.78125 -22.0625 15.4375 -21.382812 17.6875 -20.65625 C 19.925781 -19.894531 21.75 -19.164062 23.15625 -18.46875 C 24.5625 -17.78125 25.773438 -16.773438 26.796875 -15.453125 C 27.816406 -14.128906 28.328125 -12.429688 28.328125 -10.359375 C 28.328125 -8.367188 27.820312 -6.566406 26.8125 -4.953125 C 25.8125 -3.335938 24.351562 -2.050781 22.4375 -1.09375 C 20.519531 -0.132812 18.257812 0.34375 15.65625 0.34375 Z M 15.65625 0.34375 "/></g></g></g><g fill="#0e1c30" fill-opacity="1"><g transform="translate(232.727762, 259.418769)"><g><path d="M 28.078125 -34.765625 L 28.078125 -27.984375 L 18.875 -27.984375 L 18.875 0 L 10.40625 0 L 10.40625 -27.984375 L 1.1875 -27.984375 L 1.1875 -34.765625 Z M 28.078125 -34.765625 "/></g></g></g><g fill="#0e1c30" fill-opacity="1"><g transform="translate(265.212053, 259.418769)"><g><path d="M 11.546875 -34.765625 L 11.546875 0 L 3.078125 0 L 3.078125 -34.765625 Z M 11.546875 -34.765625 "/></g></g></g><g fill="#0e1c30" fill-opacity="1"><g transform="translate(283.039378, 259.418769)"><g><path d="M 24.71875 -6.140625 L 11.734375 -6.140625 L 9.65625 0 L 0.796875 0 L 13.375 -34.765625 L 23.1875 -34.765625 L 35.765625 0 L 26.796875 0 Z M 22.53125 -12.6875 L 18.234375 -25.40625 L 13.96875 -12.6875 Z M 22.53125 -12.6875 "/></g></g></g><g fill="#64677b" fill-opacity="1"><g transform="translate(91.900243, 283.120219)"><g><path d="M 8.953125 -11.078125 L 8.953125 -8.921875 L 6.015625 -8.921875 L 6.015625 0 L 3.3125 0 L 3.3125 -8.921875 L 0.375 -8.921875 L 0.375 -11.078125 Z M 8.953125 -11.078125 "/></g></g></g><g fill="#64677b" fill-opacity="1"><g transform="translate(103.218864, 283.120219)"><g><path d="M 6.21875 0.109375 C 5.175781 0.109375 4.21875 -0.128906 3.34375 -0.609375 C 2.476562 -1.097656 1.789062 -1.773438 1.28125 -2.640625 C 0.769531 -3.503906 0.515625 -4.484375 0.515625 -5.578125 C 0.515625 -6.660156 0.769531 -7.628906 1.28125 -8.484375 C 1.789062 -9.347656 2.476562 -10.019531 3.34375 -10.5 C 4.21875 -10.988281 5.175781 -11.234375 6.21875 -11.234375 C 7.257812 -11.234375 8.210938 -10.988281 9.078125 -10.5 C 9.953125 -10.019531 10.640625 -9.347656 11.140625 -8.484375 C 11.640625 -7.628906 11.890625 -6.660156 11.890625 -5.578125 C 11.890625 -4.484375 11.632812 -3.503906 11.125 -2.640625 C 10.625 -1.773438 9.941406 -1.097656 9.078125 -0.609375 C 8.210938 -0.128906 7.257812 0.109375 6.21875 0.109375 Z M 6.21875 -2.34375 C 7.101562 -2.34375 7.8125 -2.640625 8.34375 -3.234375 C 8.875 -3.828125 9.140625 -4.609375 9.140625 -5.578125 C 9.140625 -6.546875 8.875 -7.320312 8.34375 -7.90625 C 7.8125 -8.5 7.101562 -8.796875 6.21875 -8.796875 C 5.320312 -8.796875 4.609375 -8.503906 4.078125 -7.921875 C 3.546875 -7.335938 3.28125 -6.554688 3.28125 -5.578125 C 3.28125 -4.597656 3.546875 -3.8125 4.078125 -3.21875 C 4.609375 -2.632812 5.320312 -2.34375 6.21875 -2.34375 Z M 6.21875 -2.34375 "/></g></g></g><g fill="#64677b" fill-opacity="1"><g transform="translate(117.610915, 283.120219)"><g><path d="M 5.125 -11.078125 C 6.289062 -11.078125 7.3125 -10.84375 8.1875 -10.375 C 9.0625 -9.914062 9.738281 -9.269531 10.21875 -8.4375 C 10.695312 -7.601562 10.9375 -6.640625 10.9375 -5.546875 C 10.9375 -4.453125 10.695312 -3.484375 10.21875 -2.640625 C 9.738281 -1.804688 9.054688 -1.15625 8.171875 -0.6875 C 7.296875 -0.226562 6.28125 0 5.125 0 L 0.984375 0 L 0.984375 -11.078125 Z M 4.953125 -2.328125 C 5.972656 -2.328125 6.765625 -2.609375 7.328125 -3.171875 C 7.898438 -3.734375 8.1875 -4.523438 8.1875 -5.546875 C 8.1875 -6.554688 7.898438 -7.347656 7.328125 -7.921875 C 6.765625 -8.492188 5.972656 -8.78125 4.953125 -8.78125 L 3.671875 -8.78125 L 3.671875 -2.328125 Z M 4.953125 -2.328125 "/></g></g></g><g fill="#64677b" fill-opacity="1"><g transform="translate(131.073055, 283.120219)"><g><path d="M 6.21875 0.109375 C 5.175781 0.109375 4.21875 -0.128906 3.34375 -0.609375 C 2.476562 -1.097656 1.789062 -1.773438 1.28125 -2.640625 C 0.769531 -3.503906 0.515625 -4.484375 0.515625 -5.578125 C 0.515625 -6.660156 0.769531 -7.628906 1.28125 -8.484375 C 1.789062 -9.347656 2.476562 -10.019531 3.34375 -10.5 C 4.21875 -10.988281 5.175781 -11.234375 6.21875 -11.234375 C 7.257812 -11.234375 8.210938 -10.988281 9.078125 -10.5 C 9.953125 -10.019531 10.640625 -9.347656 11.140625 -8.484375 C 11.640625 -7.628906 11.890625 -6.660156 11.890625 -5.578125 C 11.890625 -4.484375 11.632812 -3.503906 11.125 -2.640625 C 10.625 -1.773438 9.941406 -1.097656 9.078125 -0.609375 C 8.210938 -0.128906 7.257812 0.109375 6.21875 0.109375 Z M 6.21875 -2.34375 C 7.101562 -2.34375 7.8125 -2.640625 8.34375 -3.234375 C 8.875 -3.828125 9.140625 -4.609375 9.140625 -5.578125 C 9.140625 -6.546875 8.875 -7.320312 8.34375 -7.90625 C 7.8125 -8.5 7.101562 -8.796875 6.21875 -8.796875 C 5.320312 -8.796875 4.609375 -8.503906 4.078125 -7.921875 C 3.546875 -7.335938 3.28125 -6.554688 3.28125 -5.578125 C 3.28125 -4.597656 3.546875 -3.8125 4.078125 -3.21875 C 4.609375 -2.632812 5.320312 -2.34375 6.21875 -2.34375 Z M 6.21875 -2.34375 "/></g></g></g><g fill="#64677b" fill-opacity="1"><g transform="translate(145.465107, 283.120219)"><g/></g></g><g fill="#64677b" fill-opacity="1"><g transform="translate(150.81022, 283.120219)"><g><path d="M 13.53125 -11.078125 L 13.53125 0 L 10.828125 0 L 10.828125 -6.640625 L 8.34375 0 L 6.171875 0 L 3.671875 -6.65625 L 3.671875 0 L 0.984375 0 L 0.984375 -11.078125 L 4.171875 -11.078125 L 7.28125 -3.40625 L 10.359375 -11.078125 Z M 13.53125 -11.078125 "/></g></g></g><g fill="#64677b" fill-opacity="1"><g transform="translate(167.282765, 283.120219)"><g><path d="M 7.875 -1.953125 L 3.734375 -1.953125 L 3.078125 0 L 0.25 0 L 4.265625 -11.078125 L 7.390625 -11.078125 L 11.390625 0 L 8.53125 0 Z M 7.1875 -4.046875 L 5.8125 -8.09375 L 4.453125 -4.046875 Z M 7.1875 -4.046875 "/></g></g></g><g fill="#64677b" fill-opacity="1"><g transform="translate(180.902524, 283.120219)"><g><path d="M 10.890625 0 L 8.1875 0 L 3.671875 -6.828125 L 3.671875 0 L 0.984375 0 L 0.984375 -11.078125 L 3.671875 -11.078125 L 8.1875 -4.21875 L 8.1875 -11.078125 L 10.890625 -11.078125 Z M 10.890625 0 "/></g></g></g><g fill="#64677b" fill-opacity="1"><g transform="translate(194.7587, 283.120219)"><g><path d="M 7.875 -1.953125 L 3.734375 -1.953125 L 3.078125 0 L 0.25 0 L 4.265625 -11.078125 L 7.390625 -11.078125 L 11.390625 0 L 8.53125 0 Z M 7.1875 -4.046875 L 5.8125 -8.09375 L 4.453125 -4.046875 Z M 7.1875 -4.046875 "/></g></g></g><g fill="#64677b" fill-opacity="1"><g transform="translate(208.378452, 283.120219)"><g><path d="M 8.328125 -7.578125 C 8.128906 -7.941406 7.84375 -8.222656 7.46875 -8.421875 C 7.09375 -8.617188 6.65625 -8.71875 6.15625 -8.71875 C 5.28125 -8.71875 4.578125 -8.425781 4.046875 -7.84375 C 3.523438 -7.269531 3.265625 -6.507812 3.265625 -5.5625 C 3.265625 -4.539062 3.539062 -3.738281 4.09375 -3.15625 C 4.644531 -2.582031 5.40625 -2.296875 6.375 -2.296875 C 7.039062 -2.296875 7.601562 -2.460938 8.0625 -2.796875 C 8.519531 -3.140625 8.851562 -3.628906 9.0625 -4.265625 L 5.640625 -4.265625 L 5.640625 -6.25 L 11.5 -6.25 L 11.5 -3.734375 C 11.300781 -3.066406 10.960938 -2.441406 10.484375 -1.859375 C 10.003906 -1.285156 9.394531 -0.816406 8.65625 -0.453125 C 7.925781 -0.0976562 7.097656 0.078125 6.171875 0.078125 C 5.078125 0.078125 4.097656 -0.160156 3.234375 -0.640625 C 2.378906 -1.117188 1.710938 -1.78125 1.234375 -2.625 C 0.753906 -3.476562 0.515625 -4.457031 0.515625 -5.5625 C 0.515625 -6.65625 0.753906 -7.628906 1.234375 -8.484375 C 1.710938 -9.335938 2.378906 -10.003906 3.234375 -10.484375 C 4.085938 -10.960938 5.0625 -11.203125 6.15625 -11.203125 C 7.476562 -11.203125 8.59375 -10.878906 9.5 -10.234375 C 10.414062 -9.597656 11.019531 -8.710938 11.3125 -7.578125 Z M 8.328125 -7.578125 "/></g></g></g><g fill="#64677b" fill-opacity="1"><g transform="translate(222.392242, 283.120219)"><g><path d="M 3.671875 -8.921875 L 3.671875 -6.671875 L 7.296875 -6.671875 L 7.296875 -4.59375 L 3.671875 -4.59375 L 3.671875 -2.15625 L 7.765625 -2.15625 L 7.765625 0 L 0.984375 0 L 0.984375 -11.078125 L 7.765625 -11.078125 L 7.765625 -8.921875 Z M 3.671875 -8.921875 "/></g></g></g><g fill="#64677b" fill-opacity="1"><g transform="translate(232.922796, 283.120219)"><g><path d="M 13.53125 -11.078125 L 13.53125 0 L 10.828125 0 L 10.828125 -6.640625 L 8.34375 0 L 6.171875 0 L 3.671875 -6.65625 L 3.671875 0 L 0.984375 0 L 0.984375 -11.078125 L 4.171875 -11.078125 L 7.28125 -3.40625 L 10.359375 -11.078125 Z M 13.53125 -11.078125 "/></g></g></g><g fill="#64677b" fill-opacity="1"><g transform="translate(249.395337, 283.120219)"><g><path d="M 3.671875 -8.921875 L 3.671875 -6.671875 L 7.296875 -6.671875 L 7.296875 -4.59375 L 3.671875 -4.59375 L 3.671875 -2.15625 L 7.765625 -2.15625 L 7.765625 0 L 0.984375 0 L 0.984375 -11.078125 L 7.765625 -11.078125 L 7.765625 -8.921875 Z M 3.671875 -8.921875 "/></g></g></g><g fill="#64677b" fill-opacity="1"><g transform="translate(259.925891, 283.120219)"><g><path d="M 10.890625 0 L 8.1875 0 L 3.671875 -6.828125 L 3.671875 0 L 0.984375 0 L 0.984375 -11.078125 L 3.671875 -11.078125 L 8.1875 -4.21875 L 8.1875 -11.078125 L 10.890625 -11.078125 Z M 10.890625 0 "/></g></g></g><g fill="#64677b" fill-opacity="1"><g transform="translate(273.782067, 283.120219)"><g><path d="M 8.953125 -11.078125 L 8.953125 -8.921875 L 6.015625 -8.921875 L 6.015625 0 L 3.3125 0 L 3.3125 -8.921875 L 0.375 -8.921875 L 0.375 -11.078125 Z M 8.953125 -11.078125 "/></g></g></g><g clip-path="url(#9517312694)"><path fill="#ecb228" d="M 228.539062 171.851562 L 222.28125 171.851562 C 222.109375 171.851562 221.96875 171.992188 221.96875 172.164062 L 221.96875 178.421875 C 221.96875 178.59375 222.109375 178.734375 222.28125 178.734375 L 228.539062 178.734375 C 228.710938 178.734375 228.851562 178.59375 228.851562 178.421875 L 228.851562 172.164062 C 228.851562 171.992188 228.710938 171.851562 228.539062 171.851562 Z M 228.539062 171.851562 " fill-opacity="1" fill-rule="nonzero"/></g><g clip-path="url(#b741203971)"><path fill="#ecb228" d="M 237.300781 171.851562 L 231.042969 171.851562 C 230.867188 171.851562 230.730469 171.992188 230.730469 172.164062 L 230.730469 178.421875 C 230.730469 178.59375 230.867188 178.734375 231.042969 178.734375 L 237.300781 178.734375 C 237.472656 178.734375 237.613281 178.59375 237.613281 178.421875 L 237.613281 172.164062 C 237.613281 171.992188 237.472656 171.851562 237.300781 171.851562 Z M 237.300781 171.851562 " fill-opacity="1" fill-rule="nonzero"/></g><g clip-path="url(#d7176a41b4)"><path fill="#ecb228" d="M 228.539062 180.609375 L 222.28125 180.609375 C 222.109375 180.609375 221.96875 180.75 221.96875 180.921875 L 221.96875 187.179688 C 221.96875 187.355469 222.109375 187.492188 222.28125 187.492188 L 228.539062 187.492188 C 228.710938 187.492188 228.851562 187.355469 228.851562 187.179688 L 228.851562 180.921875 C 228.851562 180.75 228.710938 180.609375 228.539062 180.609375 Z M 228.539062 180.609375 " fill-opacity="1" fill-rule="nonzero"/></g><g clip-path="url(#ab2cc5fc3c)"><path fill="#ecb228" d="M 237.300781 180.609375 L 231.042969 180.609375 C 230.867188 180.609375 230.730469 180.75 230.730469 180.921875 L 230.730469 187.179688 C 230.730469 187.355469 230.867188 187.492188 231.042969 187.492188 L 237.300781 187.492188 C 237.472656 187.492188 237.613281 187.355469 237.613281 187.179688 L 237.613281 180.921875 C 237.613281 180.75 237.472656 180.609375 237.300781 180.609375 Z M 237.300781 180.609375 " fill-opacity="1" fill-rule="nonzero"/></g></svg>